# xmcd
#
# Track frame offsets: 
#        150
#        23380
#        47581
#        70502
#        97328
#        117519
#        147351
#        176486
#        200481
#        224387
#
# Disc length: 3294 seconds
#
# Revision: 0
# Processed by: cddbd v1.5.2PL0 Copyright (c) Steve Scherf et al.
# Submitted via: ExactAudioCopy v1.0b3
#
DISCID=8e0cdc0a
DTITLE=Giang Tu - Tam Biet Em Yeu
DYEAR=2011
DGENRE=
TTITLE0=Tam biet em yeu
TTITLE1=Giang Tu, Phuong Hong Que - Phan gai thuyen quyen
TTITLE2=Qua con me
TTITLE3=Giang Tu, Phuong Dung - Mua dem tinh nho
TTITLE4=Tren bon vung chien thuat
TTITLE5=Giang Tu, Phuong Hong Que - Can nha mau tim
TTITLE6=Qua ngo nha em
TTITLE7=Giang Tu, Phuong Dung - Nghoeo tay nhau the
TTITLE8=Suong trang mien que ngoai
TTITLE9=Chuyen tau ve que ngoai
EXTD=
EXTT0=
EXTT1=
EXTT2=
EXTT3=
EXTT4=
EXTT5=
EXTT6=
EXTT7=
EXTT8=
EXTT9=
PLAYORDER=
